<svg class="login__blob" viewBox="0 0 566 840" xmlns="http://www.w3.org/2000/svg">
    <mask id="mask0" mask-type="alpha">
        <path d="M0 0H566C552.538 5.00903 466.81 35.564 489.872 132.737C517.436 
        248.89 451.769 321.073 390.607 351.127C203.69 442.974 410.095 537.176 
        399.13 660.68C393.615 722.791 282.32 744.83 224.668 766.368C178.545 
        783.599 172.697 822.636 175.537 840H0V0Z" />
    </mask>
    <g mask="url(#mask0)">
        <path d="M0 0H566C552.538 5.00903 466.81 35.564 489.872 132.737C517.436 
        248.89 451.769 321.073 390.607 351.127C203.69 442.974 410.095 537.176 
        399.13 660.68C393.615 722.791 282.32 744.83 224.668 766.368C178.545 
        783.599 172.697 822.636 175.537 840H0V0Z" />
        <!-- Insert your image (recommended size: 1000 x 1200) -->
        <image class="login__img" href="assets/img/house.png" />
    </g>
</svg>
